<svg width="18" height="21" viewBox="0 0 18 21" fill="none" xmlns="http://www.w3.org/2000/svg">
<path fill-rule="evenodd" clip-rule="evenodd" d="M9 4.5C6.92893 4.5 5.25 6.17893 5.25 8.25C5.25 10.3211 6.92893 12 9 12C11.0711 12 12.75 10.3211 12.75 8.25C12.75 6.17893 11.0711 4.5 9 4.5ZM9 10.5C7.75736 10.5 6.75 9.49264 6.75 8.25C6.75 7.00736 7.75736 6 9 6C10.2426 6 11.25 7.00736 11.25 8.25C11.25 9.49264 10.2426 10.5 9 10.5ZM9 0C4.44579 0.00516641 0.755167 3.69579 0.75 8.25C0.75 11.1938 2.11031 14.3138 4.6875 17.2734C5.84552 18.6108 7.14886 19.8151 8.57344 20.8641C8.83177 21.045 9.17573 21.045 9.43406 20.8641C10.856 19.8147 12.1568 18.6104 13.3125 17.2734C15.8859 14.3138 17.25 11.1938 17.25 8.25C17.2448 3.69579 13.5542 0.00516641 9 0ZM9 19.3125C7.45031 18.0938 2.25 13.6172 2.25 8.25C2.25 4.52208 5.27208 1.5 9 1.5C12.7279 1.5 15.75 4.52208 15.75 8.25C15.75 13.6153 10.5497 18.0938 9 19.3125Z" fill="#0D141C"/>
</svg>
